# Blender 5.1.1
# www.blender.org
mtllib Untitled.mtl
o Cone
v 0.000000 0.470059 4.475714
v 0.367507 0.293077 4.475714
v 0.458274 -0.104598 4.475714
v 0.203951 -0.423509 4.475714
v -0.203951 -0.423509 4.475714
v -0.458274 -0.104598 4.475714
v -0.367507 0.293077 4.475714
v 0.000000 -0.000000 6.475714
v 0.000000 1.000000 4.475714
v 0.781831 0.623490 4.475714
v 0.974928 -0.222521 4.475714
v 0.433884 -0.900969 4.475714
v -0.433884 -0.900969 4.475714
v -0.974928 -0.222521 4.475714
v -0.781831 0.623490 4.475714
v 0.004004 0.465414 -0.002769
v 0.371511 0.288432 -0.002769
v 0.462277 -0.109243 -0.002769
v 0.207954 -0.428154 -0.002769
v -0.199947 -0.428154 -0.002769
v -0.454270 -0.109243 -0.002769
v -0.363503 0.288432 -0.002769
vn 0.3956 0.8215 0.4107
vn 0.8889 0.2029 0.4107
vn 0.7128 -0.5685 0.4107
vn -0.0000 -0.9118 0.4107
vn -0.7128 -0.5685 0.4107
vn -0.9749 0.2225 -0.0011
vn -0.8889 0.2029 0.4107
vn -0.3956 0.8215 0.4107
vn -0.0000 -0.0000 -1.0000
vn -0.0000 -1.0000 0.0010
vn 0.9749 0.2225 0.0006
vn -0.4339 0.9010 -0.0013
vn -0.7818 -0.6235 -0.0001
vn 0.7818 -0.6235 0.0013
vn 0.4339 0.9010 -0.0005
vt 0.250000 0.490000
vt 0.250000 0.250000
vt 0.437640 0.399638
vt 0.483983 0.196595
vt 0.354132 0.033767
vt 0.145868 0.033767
vt 0.016017 0.196595
vt 0.640014 0.224896
vt 0.661798 0.320338
vt 0.062360 0.399638
vt 0.838202 0.320338
vt 0.750000 0.362814
vt 0.750000 0.490000
vt 0.937640 0.399638
vt 0.859986 0.224896
vt 0.983983 0.196595
vt 0.798948 0.148358
vt 0.854132 0.033767
vt 0.701052 0.148358
vt 0.645868 0.033767
vt 0.516017 0.196595
vt 0.562360 0.399638
s 0
f 9/1/1 8/2/1 10/3/1
f 10/3/2 8/2/2 11/4/2
f 11/4/3 8/2/3 12/5/3
f 12/5/4 8/2/4 13/6/4
f 13/6/5 8/2/5 14/7/5
f 6/8/6 7/9/6 22/9/6 21/8/6
f 14/7/7 8/2/7 15/10/7
f 15/10/8 8/2/8 9/1/8
f 2/11/9 1/12/9 9/13/9 10/14/9
f 3/15/9 2/11/9 10/14/9 11/16/9
f 4/17/9 3/15/9 11/16/9 12/18/9
f 5/19/9 4/17/9 12/18/9 13/20/9
f 6/8/9 5/19/9 13/20/9 14/21/9
f 7/9/9 6/8/9 14/21/9 15/22/9
f 1/12/9 7/9/9 15/22/9 9/13/9
f 16/12/9 17/11/9 18/15/9 19/17/9 20/19/9 21/8/9 22/9/9
f 4/17/10 5/19/10 20/19/10 19/17/10
f 2/11/11 3/15/11 18/15/11 17/11/11
f 7/9/12 1/12/12 16/12/12 22/9/12
f 5/19/13 6/8/13 21/8/13 20/19/13
f 3/15/14 4/17/14 19/17/14 18/15/14
f 1/12/15 2/11/15 17/11/15 16/12/15
